<svg version="1.1" id="Capa_1" xmlns="http://www.w3.org/2000/svg" x="0" y="0" viewBox="0 0 480 480" xml:space="preserve"><style>.st0{fill:#49d6f4}</style><path class="st0" d="M112 88c-17.7 0-32 14.3-32 32s14.3 32 32 32 32-14.3 32-32-14.3-32-32-32zm0 48c-8.8 0-16-7.2-16-16s7.2-16 16-16 16 7.2 16 16-7.2 16-16 16zM208 112c-13.3 0-24 10.7-24 24s10.7 24 24 24 24-10.7 24-24-10.7-24-24-24zm0 32c-4.4 0-8-3.6-8-8s3.6-8 8-8 8 3.6 8 8-3.6 8-8 8zM172 64c-6.6 0-12 5.4-12 12s5.4 12 12 12 12-5.4 12-12-5.4-12-12-12zm0 16c-2.2 0-4-1.8-4-4s1.8-4 4-4 4 1.8 4 4-1.8 4-4 4z"/><path class="st0" d="M479.8 280.9c-1-6.6-5.3-12.2-11.3-15 2.2-5.7 3.4-11.8 3.6-17.9 0-15.9-9.4-30.3-24-36.6V40c0-22.1-17.9-40-40-40s-40 17.9-40 40v.2c-21.6.9-39 18.2-40 39.8 0 4.4 3.6 8 8 8h72c4.4 0 8-3.6 8-8-.6-18.6-13.8-34.4-32-38.4V40c0-13.3 10.7-24 24-24s24 10.7 24 24v168c-3.6 0-7.1.5-10.6 1.5-10.2-36.1-47.7-57.1-83.8-47-19.3 5.4-35.3 19.2-43.5 37.5-3 .1-6.1.5-9 1.1-8.1-20.4-31.2-30.4-51.6-22.3-5.1 2-9.7 5.1-13.6 9-26.5-26.4-69.5-26.4-95.9.2-1.9 1.9-3.7 3.9-5.3 6-26.3-7.1-53.9 5.7-65.4 30.4-21.8-3-41.8 12.2-44.8 34-.5 1.8-.6 3.7-.6 5.6v4.1c-8.8 6.6-10.6 19-4.1 27.8 3.1 4.2 7.7 6.9 12.9 7.8l5.1 48.3c5.1 39 29.9 72.7 65.7 89l-3.2 12.7c-2.8 11.4 4.1 22.9 15.4 25.7 8.7 2.2 17.8-1.4 22.8-8.8l10.6-15.9c6.5.9 13 1.3 19.5 1.4h174.6c6.5 0 13-.5 19.5-1.4l10.6 15.9c6.5 9.8 19.7 12.4 29.4 5.9 7.5-5 11-14.1 8.8-22.8l-3.2-12.7c35.8-16.4 60.6-50 65.7-89l5.1-48.3c10.9-1.8 18.3-12 16.6-22.8zm-94-221.5c5.4 2.8 9.8 7.2 12.6 12.6h-52.8c7.6-14.6 25.6-20.2 40.2-12.6zM48 240c2.6 0 5.1.5 7.6 1.4 4.2 1.4 8.7-.8 10.1-5 0-.1 0-.1.1-.2 6.5-21.1 28.9-32.9 50-26.4 1 .3 2 .7 3 1.1 3.5 1.4 7.6.1 9.6-3.1 15.5-24.1 47.6-31 71.7-15.5 5.3 3.4 9.9 7.8 13.7 12.9 2.6 3.5 7.6 4.3 11.2 1.7.9-.7 1.6-1.5 2.2-2.5 6.3-11.5 20.8-15.7 32.3-9.4 6.5 3.6 10.9 10 12.1 17.3.7 4.4 4.8 7.3 9.1 6.7.5-.1 1-.2 1.5-.4 4.4-1.6 9.1-2.5 13.8-2.5.8 0 1.6.1 2.9.2 3.6.2 6.9-2 8.1-5.3 9.5-27.1 39.1-41.4 66.2-31.9 18.7 6.5 32 23.1 34.4 42.8.5 4.4 4.5 7.5 8.9 7 1.1-.1 2.2-.5 3.2-1.1 3.7-2.3 8-3.5 12.3-3.5 13.3 0 24 10.7 24 24-.1 5.6-1.5 11.1-4.2 16H24c0-13.6 10.7-24.3 24-24.3zm61.3 221.7c-1 1.5-2.6 2.3-4.3 2.3-2.9 0-5.2-2.4-5.2-5.3 0-.4.1-.8.1-1.2l2.6-10.2c4.4 1.6 9 3 13.6 4.2l-6.8 10.2zm269.9.3c-1 1.3-2.5 2-4.1 2-1.7 0-3.4-.9-4.3-2.3l-6.7-10.1c4.7-1.2 9.2-2.6 13.6-4.2l2.5 10.2c.4 1.5 0 3.1-1 4.4zm63-111.7c-5.4 51.2-54.8 89.7-114.9 89.7H152.7c-60.1 0-109.5-38.6-114.9-89.7L32.9 304h414.2l-4.9 46.3zM460 288H20c-2.2 0-4-1.8-4-4s1.8-4 4-4h440c2.2 0 4 1.8 4 4s-1.8 4-4 4z"/><path class="st0" d="M336 104c-4.4 0-8 3.6-8 8v24c0 4.4 3.6 8 8 8s8-3.6 8-8v-24c0-4.4-3.6-8-8-8zM360 96c-4.4 0-8 3.6-8 8v16c0 4.4 3.6 8 8 8s8-3.6 8-8v-16c0-4.4-3.6-8-8-8zM384 104c-4.4 0-8 3.6-8 8v24c0 4.4 3.6 8 8 8s8-3.6 8-8v-24c0-4.4-3.6-8-8-8zM408 96c-4.4 0-8 3.6-8 8v16c0 4.4 3.6 8 8 8s8-3.6 8-8v-16c0-4.4-3.6-8-8-8z"/></svg>