<svg version="1.1" id="Layer_1" xmlns="http://www.w3.org/2000/svg" x="0" y="0" viewBox="0 0 682 682" xml:space="preserve"><style>.st0{fill-rule:evenodd;clip-rule:evenodd;fill:#49d6f4}</style><path class="st0" d="M630 326.6V114.3c0-6.9-5.6-12.5-12.5-12.5H390.6c-6.9 0-12.5 5.6-12.5 12.5s5.6 12.5 12.5 12.5H605v180.6c-13.4-7.5-28.6-12.2-44.7-13.3 1.5-24.5.6-49.6-3-76.6-1.9-14.4-12.2-29.1-28.3-29.1-1.4 0-2.9.1-4.3.4-24.4 4.2-45.4 6.1-66.3 6.1-20.8 0-42.2-2-67.6-6.1-1.4-.2-2.8-.3-4.1-.3-13.8 0-25.1 11.4-28.2 28.4-4.6 25.2-5.8 50.4-3.7 76.9h-28.5c2.1-26.4.9-51.7-3.7-76.9-3.1-17-14.5-28.4-28.2-28.4-1.4 0-2.8.1-4.1.3-25.3 4.2-46.8 6.1-67.6 6.1-20.9 0-41.9-2-66.3-6.1-1.4-.2-2.9-.4-4.3-.4-16 0-26.3 14.6-28.3 29.1-3.6 26.9-4.6 52.1-3 76.6-16.1 1.1-31.3 5.8-44.7 13.3V126.8h214.4c6.9 0 12.5-5.6 12.5-12.5s-5.6-12.5-12.5-12.5H63.8c-6.9 0-12.5 5.6-12.5 12.5v212.3C32.6 346 21 372.4 21 401.4v155.1c0 6.9 5.6 12.5 12.5 12.5H101c6.9 0 12.5-5.6 12.5-12.5 0-24.9 20.2-45.1 45.1-45.1h132.2c6.9 0 12.5-5.6 12.5-12.5s-5.6-12.5-12.5-12.5H158.5c-34.4 0-63.1 24.9-69 57.6H46V422h589.4v122h-43.6c-5.9-32.7-34.6-57.6-69-57.6H390.6c-6.9 0-12.5 5.6-12.5 12.5s5.6 12.5 12.5 12.5h132.2c24.9 0 45.1 20.2 45.1 45.1 0 6.9 5.6 12.5 12.5 12.5h67.5c6.9 0 12.5-5.6 12.5-12.5V401.4c0-29-11.6-55.4-30.4-74.8zM383.2 221.5c.8-4.6 2.9-7.4 3.8-8 26.7 4.4 49.4 6.5 71.5 6.5 22.3 0 44.7-2.1 70.5-6.5.9.5 3 3.2 3.6 7.4 3.4 25.8 4.3 49.7 2.8 73H380c-2.2-25.1-1.2-48.8 3.2-72.4zm-234.5-.7c.6-4.2 2.7-6.9 3.6-7.4 25.8 4.4 48.2 6.5 70.5 6.5 22.1 0 44.9-2.1 71.5-6.5.9.6 3 3.4 3.8 8 4.3 23.6 5.4 47.4 3.2 72.4H146c-1.6-23.2-.7-47.2 2.7-73zM46.1 396.9c1.2-21.6 10.7-41.1 25.4-55.2.5-.4 1-.9 1.5-1.4 14.7-13.4 34.2-21.6 55.6-21.6h424.2c21.4 0 40.9 8.2 55.6 21.6.5.5 1 1 1.5 1.4 14.7 14.1 24.2 33.5 25.4 55.2H46.1z"/><path class="st0" d="M340.7 126.8c6.9 0 12.5-5.6 12.5-12.5s-5.6-12.5-12.5-12.5-12.5 5.6-12.5 12.5 5.6 12.5 12.5 12.5zM340.7 486.4c-6.9 0-12.5 5.6-12.5 12.5s5.6 12.5 12.5 12.5 12.5-5.6 12.5-12.5-5.7-12.5-12.5-12.5z"/></svg>