<svg xmlns="http://www.w3.org/2000/svg" viewBox="0 0 512 512"><path d="M486.4 298.7h-25.6v-85.3c0-23.6-19.1-42.6-42.7-42.7H281.6c-23.6 0-42.6 19.1-42.7 42.7v85.3h-25.6c-14.1 0-25.6 11.5-25.6 25.6v85.3c.1 22.5 17.6 41 40 42.4l-12.3 42.9h-79.8c-4.1-19.8-21.5-34.1-41.8-34.1h-17V67.9c0-26.7 20.6-48.8 47.3-50.7s50.2 17.1 54 43.5l.1 1c-11 4.5-17.4 16.1-15.4 27.8l2.3 13.8-22.8 39.2c-3.1 5.3-3.1 11.8-.1 17.1 3 5.3 8.6 8.6 14.7 8.6 1 0 2-.1 2.9-.2l81.9-13.8c6.5-1.1 11.8-5.9 13.6-12.3 1.8-6.4-.3-13.2-5.3-17.5l-34.4-29.5-2.3-13.8c-1.7-9.6-8.6-17.4-18-20.2l-.4-2.6C189.9 23 158.4-2.4 122.8.1S59.7 32.3 59.7 67.9v392.9h-17v-8.5c0-4.7-3.8-8.5-8.5-8.5s-8.5 3.8-8.5 8.5v12.1C10.1 471.2 0 486.5 0 503.5c0 4.7 3.8 8.5 8.5 8.5h494.9c4.7 0 8.5-3.8 8.5-8.5s-3.8-8.5-8.5-8.5h-19.2L472 452c22.4-1.4 39.9-19.9 40-42.4v-85.3c0-14.2-11.5-25.6-25.6-25.6zM238.9 137.3L157 151.1l22.4-38.4 25.8-4.4 33.7 29zm-41-45l-16.8 2.8-1.4-8.4c-.8-4.6 2.3-9 7-9.8.5-.1.9-.1 1.4-.1 4.2 0 7.7 3 8.4 7.1l1.4 8.4zm83.7 95.4h136.5c14.1 0 25.6 11.5 25.6 25.6v86.9c-10.2 3.6-17 13.2-17.1 24v17.3c-7.3-5.6-16.3-8.7-25.6-8.8h-30.6l19.6-19.6c3.2-3.3 3.2-8.7-.1-12-3.3-3.3-8.6-3.3-12-.1l-19.6 19.6v-39.1c0-4.7-3.8-8.5-8.5-8.5s-8.5 3.8-8.5 8.5v39.1L321.7 301c-3.3-3.2-8.7-3.2-12 .1-3.3 3.3-3.3 8.6-.1 12l19.6 19.6h-30.6c-9.3 0-18.3 3.1-25.6 8.8v-17.3c0-10.8-6.9-20.4-17.1-24v-86.9c.1-14.1 11.6-25.5 25.7-25.6zm119.5 162.2c14.1 0 25.6 11.5 25.6 25.6v8.5H273.1v-8.5c0-14.1 11.5-25.6 25.6-25.6h102.4zm12.1 102.4l24.4 42.7H262.2l24.4-42.7h126.6zm13.5-17.1H273.1v-34.1h153.6v34.1zm-221.9-25.6v-85.3c0-4.7 3.8-8.5 8.5-8.5h34.1c4.7 0 8.5 3.8 8.5 8.5v110.9h-25.6c-14 0-25.5-11.5-25.5-25.6zM18.5 494.9c3.6-10.2 13.3-17.1 24.1-17.1h51.2c10.8 0 20.5 6.8 24.1 17.1H18.5zm214.7 0l12.2-42.7h21.5l-24.4 42.7h-9.3zm224 0l-24.4-42.7h21.5l12.2 42.7h-9.3zm37.7-85.3c0 14.1-11.5 25.6-25.6 25.6h-25.6V324.3c0-4.7 3.8-8.5 8.5-8.5h34.1c4.7 0 8.5 3.8 8.5 8.5v85.3z" fill="#49d6f4"/></svg>