<svg version="1.1" id="Capa_1" xmlns="http://www.w3.org/2000/svg" x="0" y="0" viewBox="0 0 512 512" xml:space="preserve"><style>.st0{fill:#49d6f4}</style><path class="st0" d="M447.2 133.3h-37.7c-9.6 0-17.5 7.9-17.5 17.5v75c0 1.4-1.1 2.5-2.5 2.5h-22.2l-11.5-16.6v-101c0-4.1-3.4-7.5-7.5-7.5s-7.5 3.4-7.5 7.5v95.7H171.1v-49.7c0-4.1-3.4-7.5-7.5-7.5s-7.5 3.4-7.5 7.5v54.8l-11.5 16.6h-22.2c-1.4 0-2.5-1.1-2.5-2.5v-75c0-9.6-7.9-17.5-17.5-17.5H64.8c-9.6 0-17.5 7.9-17.5 17.5v12.1c0 9.6 7.9 17.5 17.5 17.5h9.8v50.1c0 23.4 19.1 42.5 42.5 42.5h6.4v52.8c0 15.2 12.3 27.5 27.5 27.5h79.6v20.8h-67.3c-24.5 0-44.5 20-44.5 44.5V450c-8.1 6.4-13.3 16.2-13.3 27.3 0 19.1 15.6 34.7 34.7 34.7s34.7-15.6 34.7-34.7c0-10.9-5.1-20.7-13-27.1v-30.4c0-1.4 1.1-2.5 2.5-2.5h69.9v32.8c-8 6.4-13.1 16.2-13.1 27.2 0 19.1 15.6 34.7 34.7 34.7s34.7-15.6 34.7-34.7c0-11-5.1-20.8-13.1-27.2v-32.8h69.9c1.4 0 2.5 1.1 2.5 2.5v30.4c-7.9 6.4-13 16.1-13 27.1 0 19.1 15.6 34.7 34.7 34.7s34.7-15.6 34.7-34.7c0-11.1-5.2-20.9-13.3-27.3v-31.4c0-24.5-20-44.5-44.5-44.5h-67.3v-20.8h79.6c15.2 0 27.5-12.3 27.5-27.5V273h6.4c23.4 0 42.5-19.1 42.5-42.5v-50.1h9.8c9.6 0 17.5-7.9 17.5-17.5v-12.1c.2-9.7-7.7-17.5-17.3-17.5zM64.8 165.4c-1.4 0-2.5-1.1-2.5-2.5v-12.1c0-1.4 1.1-2.5 2.5-2.5h37.7c1.4 0 2.5 1.1 2.5 2.5v14.6H64.8zm69 78.6c-3 4.4-5.4 9.1-7.1 14h-9.5c-15.2 0-27.5-12.3-27.5-27.5v-50.1H105v45.3c0 9.6 7.9 17.5 17.5 17.5h11.8l-.5.8zm6.5 253c-10.9 0-19.7-8.8-19.7-19.7s8.8-19.7 19.7-19.7 19.7 8.8 19.7 19.7-8.8 19.7-19.7 19.7zm115.7 0c-10.9 0-19.7-8.8-19.7-19.7s8.8-19.7 19.7-19.7 19.7 8.8 19.7 19.7S266.9 497 256 497zm135.4-19.7c0 10.9-8.8 19.7-19.7 19.7s-19.7-8.8-19.7-19.7 8.8-19.7 19.7-19.7 19.7 8.8 19.7 19.7zm-42.8-88.2c16.3 0 29.5 13.2 29.5 29.5v24.5c-2.1-.4-4.2-.6-6.4-.6-2.3 0-4.5.2-6.7.7v-23.4c0-9.6-7.9-17.5-17.5-17.5h-72.4c-6.9 0-12.5 5.6-12.5 12.5v28.4c-2.1-.4-4.3-.6-6.6-.6s-4.4.2-6.6.6v-28.4c0-6.9-5.6-12.5-12.5-12.5h-72.4c-9.6 0-17.5 7.9-17.5 17.5v23.4c-2.2-.4-4.4-.7-6.7-.7-2.2 0-4.4.2-6.4.6v-24.5c0-16.3 13.2-29.5 29.5-29.5h185.2zm-102.9-15v-20.8h20.5v20.8h-20.5zm127.7-76.9h-43.6c-4.1 0-7.5 3.4-7.5 7.5s3.4 7.5 7.5 7.5h43.6v13.6c0 6.9-5.6 12.5-12.5 12.5H151.1c-6.9 0-12.5-5.6-12.5-12.5v-13.6h156.7c4.1 0 7.5-3.4 7.5-7.5s-3.4-7.5-7.5-7.5H138.6v-20.6c0-8.7 2.6-17 7.5-24.2l21.4-31h176.9l21.4 31c4.9 7.1 7.5 15.5 7.5 24.2v20.6zm49-66.7c0 15.2-12.3 27.5-27.5 27.5h-9.5c-1.7-4.9-4.1-9.7-7.1-14l-.5-.7h11.8c9.6 0 17.5-7.9 17.5-17.5v-45.3h15.3v50zm27.3-67.6c0 1.4-1.1 2.5-2.5 2.5H407v-14.6c0-1.4 1.1-2.5 2.5-2.5h37.7c1.4 0 2.5 1.1 2.5 2.5v12.1z"/><path class="st0" d="M163.6 128.6c4.1 0 7.5-3.4 7.5-7.5V49.8c0-19.2 15.6-34.8 34.8-34.8H306c19.2 0 34.8 15.6 34.8 34.8v27.3c0 4.1 3.4 7.5 7.5 7.5s7.5-3.4 7.5-7.5V49.8C355.8 22.3 333.4 0 306 0H205.9c-27.5 0-49.8 22.4-49.8 49.8V121c0 4.2 3.4 7.6 7.5 7.6z"/><path class="st0" d="M291.9 55h-71.8c-4.1 0-7.5 3.4-7.5 7.5s3.4 7.5 7.5 7.5h71.8c4.1 0 7.5-3.4 7.5-7.5s-3.3-7.5-7.5-7.5zM291.9 105.1h-71.8c-4.1 0-7.5 3.4-7.5 7.5s3.4 7.5 7.5 7.5h71.8c4.1 0 7.5-3.4 7.5-7.5s-3.3-7.5-7.5-7.5z"/></svg>