<svg version="1.1" id="outline" xmlns="http://www.w3.org/2000/svg" x="0" y="0" viewBox="0 0 512 512" xml:space="preserve"><style>.st0{fill:#49d6f4}</style><path class="st0" d="M460.4 168c-7.3 0-14.4 2.2-20.4 6.4V160c0-22.1-17.9-40-40-40H112c-22.1 0-40 17.9-40 40v14.4c-16.2-11.2-38.4-7.2-49.6 8.9-4.1 6-6.4 13-6.4 20.3v.2c0 3.6.5 7.2 1.6 10.6l31.7 101.5c5.1 16.4 20.1 27.7 37.2 28L80 382.6c-.7 4.4 2.2 8.5 6.6 9.2.4.1.9.1 1.3.1h16c2.7 0 5.2-1.3 6.7-3.6l29.6-44.4h231.4l29.6 44.4c1.5 2.2 4 3.6 6.7 3.6h16c4.4 0 8-3.6 8-8 0-.4 0-.9-.1-1.3l-6.5-38.7c17.2-.4 32.1-11.7 37.2-28l31.7-101.5c1.1-3.4 1.6-7 1.6-10.6v-.2C496 184 480 168 460.4 168zM112 136h288c13.2 0 24 10.8 24 24v40.8l-13.8 44.9c-6-8.6-15.8-13.7-26.2-13.7H280c-9.2 0-17.9 4-24 10.9-6.1-6.9-14.8-10.9-24-10.9H128c-10.4 0-20.2 5.1-26.2 13.7L88 200.8V160c0-13.2 10.8-24 24-24zm136 136H112v-8c0-8.8 7.2-16 16-16h104c8.8 0 16 7.2 16 16v8zm152 0H264v-8c0-8.8 7.2-16 16-16h104c8.8 0 16 7.2 16 16v8zM99.7 376h-2.3l5.3-32H121l-21.3 32zm312.6 0L391 344h18.3l5.3 32h-2.3zM480 203.8c0 2-.3 4-.9 5.8l-31.7 101.5c-3.1 10-12.4 16.9-22.9 16.8h-337c-10.5 0-19.8-6.8-22.9-16.8L32.9 209.6c-.6-1.9-.9-3.9-.9-5.8v-.2c0-10.8 8.8-19.6 19.6-19.6 8.6 0 16.2 5.6 18.7 13.8l26 84.5c1 3.4 4.1 5.6 7.6 5.6h304c3.5 0 6.6-2.3 7.6-5.6l26-84.5c3.2-10.4 14.2-16.2 24.5-13 8.2 2.5 13.8 10.1 13.8 18.7v.3z"/><path class="st0" d="M136 176h16v16h-16zM192 176h16v16h-16zM248 176h16v16h-16zM304 176h16v16h-16zM360 176h16v16h-16z"/></svg>